<?xml version="1.0" encoding="utf-8"?>
<!-- Generator: Adobe Illustrator 19.2.1, SVG Export Plug-In . SVG Version: 6.00 Build 0)  -->
<svg version="1.1" id="layer" xmlns="http://www.w3.org/2000/svg" xmlns:xlink="http://www.w3.org/1999/xlink" x="0px" y="0px"
	 viewBox="0 0 652 652" style="enable-background:new 0 0 652 652;" xml:space="preserve">
<style type="text/css">
	.st0{fill:#004E72;}
	.st1{fill-rule:evenodd;clip-rule:evenodd;fill:#004E72;}
	.st2{clip-path:url(#SVGID_2_);fill:url(#SVGID_3_);}
	.st3{clip-path:url(#SVGID_5_);fill:url(#SVGID_6_);}
	.st4{clip-path:url(#SVGID_8_);fill:url(#SVGID_9_);}
	.st5{fill-rule:evenodd;clip-rule:evenodd;fill:#231815;}
	.st6{clip-path:url(#SVGID_11_);}
	.st7{clip-path:url(#SVGID_13_);fill:url(#SVGID_14_);}
	.st8{fill:#231815;}
</style>
<path class="st0" d="M628.5,332.2c-0.9,0.5-1.8,1-2.7,1.5c-2.2,1.2-4,2.5-5.5,3.9l-13,11.7l13,11.4c1.8,1.7,4.5,3.4,8.1,5.2h-17.3
	c0-0.5-0.2-0.9-0.4-1.4c-0.4-1.1-1.1-2.2-2-3l-8-7.6l-7.5,7.1c-1.6,1.5-2.6,3.2-2.9,4.9h-17.3c2-1.1,5-3,8.8-5.7l12.3-10.9
	l-13.1-11.9c-1.9-1.7-4.6-3.5-8.1-5.2h16.4c0,1.4,0.9,3,2.7,4.8l8.7,8l8-7.4c2.5-2.3,3.7-4.1,3.5-5.4 M552.9,339.7
	c-1.7-1.6-3.8-2.3-6.3-2.3h-10c-4.7,0-7.8,0.4-9.4,1.3c-1.7,1-2.7,2.9-2.7,5.9v15.2c0,2,0.8,4.1,2.3,6.2h-15.2c1.6-2,2.3-4,2.3-6.2
	v-21.6c0-2-0.8-4-2.3-5.9h12.8v4.7c2.2-3.1,6.7-4.7,13.4-4.7h14.9V339.7z M480,343.1c0-3.8-3.5-5.7-10.5-5.7h-13.2
	c-4.5,0-7.5,0.5-9.2,1.4c-1.8,1.1-2.7,3-2.7,5.8v2h35.5c0-0.4,0-0.9,0.1-1.7V343.1z M490,351.6h-45.6v2c0,3,0.8,4.9,2.5,5.8
	c1.7,0.9,4.8,1.4,9.4,1.4h22.8c2.6,0,5.4-0.8,8.2-2.3v7.4h-37.3c-6.7,0-11-0.4-12.7-1.2c-2.3-1-3.5-3.5-3.5-7.5v-16.2
	c0-3.4,1.4-5.8,4.2-7c2.3-1.1,6.4-1.6,12-1.6h23.7c6.7,0,10.9,0.4,12.7,1.2c2.3,1,3.5,3.5,3.5,7.4V351.6z M409.8,365.9h-15.2
	c1.6-2,2.3-4.2,2.3-6.4v-32.7c0-2.5-0.8-4.8-2.3-6.9h15.2c-1.6,2.7-2.3,5-2.3,6.9v32.7C407.4,361.9,408.2,364,409.8,365.9
	 M371.9,365.9h-42.3c-6.7,0-10.9-0.4-12.7-1.2c-2.3-1.1-3.5-3.5-3.5-7.5v-28.7c0-3.9,1.2-6.4,3.5-7.5c1.8-0.8,6-1.2,12.7-1.2h42.3
	v7.4c-3.8-1.6-6.8-2.3-8.9-2.3h-27.1c-4.7,0-7.8,0.4-9.4,1.3c-1.8,1-2.7,2.9-2.7,5.9v21.6c0,2.9,0.9,4.9,2.7,5.9
	c1.6,0.9,4.7,1.3,9.4,1.3H363c3.3,0,6.2-0.8,8.9-2.3V365.9z M279,343.1c0-3.8-3.5-5.7-10.5-5.7h-13.2c-4.5,0-7.5,0.5-9.2,1.4
	c-1.8,1.1-2.7,3-2.7,5.8v2h35.5c0-0.4,0-0.9,0.1-1.7V343.1z M289,351.6h-45.6v2c0,3,0.8,4.9,2.5,5.8c1.7,0.9,4.8,1.4,9.5,1.4h22.8
	c2.6,0,5.4-0.8,8.2-2.3v7.4h-37.3c-6.7,0-11-0.4-12.7-1.2c-2.3-1-3.5-3.5-3.5-7.5v-16.2c0-3.4,1.4-5.8,4.2-7c2.3-1.1,6.4-1.6,12-1.6
	h23.7c6.7,0,10.9,0.4,12.7,1.2c2.3,1,3.5,3.5,3.5,7.4V351.6z"/>
<g>
	<path class="st1" d="M44,294.2c31.4-58.9,151.6-53.3,205.8-50.7c-47.4,0.8-98.3,13.7-125.2,50.7H44"/>
</g>
<g>
	<g>
		<defs>
			<path id="SVGID_1_" d="M56.3,290.8l63.8-0.2c22.8-31.8,70.4-45.5,110.6-47.1c-7.6-0.2-16.8-0.4-26.8-0.4
				C153.1,243.2,78.5,248.6,56.3,290.8"/>
		</defs>
		<clipPath id="SVGID_2_">
			<use xlink:href="#SVGID_1_"  style="overflow:visible;"/>
		</clipPath>
		
			<linearGradient id="SVGID_3_" gradientUnits="userSpaceOnUse" x1="-65.1178" y1="773.0394" x2="-56.3316" y2="773.0394" gradientTransform="matrix(0 5.4231 -41.537 0 32253.2617 596.3025)">
			<stop  offset="0" style="stop-color:#506D8B"/>
			<stop  offset="8.053501e-002" style="stop-color:#476A88"/>
			<stop  offset="0.5793" style="stop-color:#145678"/>
			<stop  offset="0.8242" style="stop-color:#004F72"/>
			<stop  offset="1" style="stop-color:#004F72"/>
		</linearGradient>
		<rect x="56.3" y="243.2" class="st2" width="174.4" height="47.6"/>
	</g>
</g>
<g>
	<path class="st1" d="M34.3,313.9c-32.6,105.6,75.5,95.6,247.8,90.8c-172.8-1.4-181.7-24.6-168.4-90.8H34.3"/>
	<path class="st0" d="M128.9,302.9c33.2-54.6,184-78.3,184.7-0.1h-80.4C253.1,249.6,155.4,271.8,128.9,302.9"/>
</g>
<g>
	<g>
		<defs>
			<path id="SVGID_4_" d="M195.9,265.4l-3.4,1.1l0.1,0l5.1-0.7c3.3-0.3,6.8-0.5,10.3-0.5c10.3,0,20.9,1.8,27.9,9.1
				c6.2,6.5,6.7,14.7,5.1,22.8h66.2c-1.2-28.2-32-38.8-58.5-39.5c-1.2,0-2.4-0.1-3.6-0.1C228.3,257.7,212,260.8,195.9,265.4"/>
		</defs>
		<clipPath id="SVGID_5_">
			<use xlink:href="#SVGID_4_"  style="overflow:visible;"/>
		</clipPath>
		
			<linearGradient id="SVGID_6_" gradientUnits="userSpaceOnUse" x1="-33.5588" y1="776.7789" x2="-24.7725" y2="776.7789" gradientTransform="matrix(-5.5094 5.5094 -30.313 -30.313 23636.7227 23983.6367)">
			<stop  offset="0" style="stop-color:#506D8B"/>
			<stop  offset="1.431218e-002" style="stop-color:#4D6C8A"/>
			<stop  offset="0.1901" style="stop-color:#2C5F80"/>
			<stop  offset="0.3579" style="stop-color:#145678"/>
			<stop  offset="0.5129" style="stop-color:#055174"/>
			<stop  offset="0.6429" style="stop-color:#004F72"/>
			<stop  offset="1" style="stop-color:#004F72"/>
		</linearGradient>
		<polygon class="st3" points="249.9,200.3 172.8,277.5 249.9,354.6 327,277.5 		"/>
	</g>
</g>
<g>
	<g>
		<defs>
			<path id="SVGID_7_" d="M136.5,401.8c10.1,0,19.5-0.4,27.3-0.7c-40.2-1.7-73.8-25.2-57.6-84.6l-63.6-0.3
				C17.3,392,85.7,401.8,136.5,401.8"/>
		</defs>
		<clipPath id="SVGID_8_">
			<use xlink:href="#SVGID_7_"  style="overflow:visible;"/>
		</clipPath>
		
			<linearGradient id="SVGID_9_" gradientUnits="userSpaceOnUse" x1="7.9999" y1="766.0344" x2="16.7862" y2="766.0344" gradientTransform="matrix(7.693 -5.3867 30.621 43.732 -23464.9043 -33072.0898)">
			<stop  offset="0" style="stop-color:#506D8B"/>
			<stop  offset="1.431218e-002" style="stop-color:#4D6C8A"/>
			<stop  offset="0.1901" style="stop-color:#2C5F80"/>
			<stop  offset="0.3579" style="stop-color:#145678"/>
			<stop  offset="0.5129" style="stop-color:#055174"/>
			<stop  offset="0.6429" style="stop-color:#004F72"/>
			<stop  offset="1" style="stop-color:#004F72"/>
		</linearGradient>
		<polygon class="st4" points="65.4,470.6 203.9,373.7 115.5,247.4 -22.9,344.4 		"/>
	</g>
</g>
<path class="st5" d="M144.1,302.4c28.1-25.6,93.8-36.5,64.5,0H144.1"/>
<g>
	<defs>
		<rect id="SVGID_10_" x="149.5" y="281.1" width="68.2" height="19.3"/>
	</defs>
	<clipPath id="SVGID_11_">
		<use xlink:href="#SVGID_10_"  style="overflow:visible;"/>
	</clipPath>
	<g class="st6">
		<defs>
			<path id="SVGID_12_" d="M174.5,286.8c-8.9,3.4-17.4,7.8-25,13.6h58.1c1.3-1.7,2.6-3.4,3.7-5.3c6.3-10.8,0.4-14-8.5-14
				C192.7,281.1,178.9,285.2,174.5,286.8"/>
		</defs>
		<clipPath id="SVGID_13_">
			<use xlink:href="#SVGID_12_"  style="overflow:visible;"/>
		</clipPath>
		
			<linearGradient id="SVGID_14_" gradientUnits="userSpaceOnUse" x1="-152.411" y1="773.2155" x2="-143.6282" y2="773.2155" gradientTransform="matrix(0 2.2019 -16.567 0 12993.4697 616.7305)">
			<stop  offset="0" style="stop-color:#61605F"/>
			<stop  offset="0.2652" style="stop-color:#474240"/>
			<stop  offset="0.5364" style="stop-color:#332B28"/>
			<stop  offset="0.7884" style="stop-color:#271D1A"/>
			<stop  offset="1" style="stop-color:#231815"/>
		</linearGradient>
		<rect x="149.5" y="281.1" class="st7" width="68.2" height="19.3"/>
	</g>
</g>
<path class="st8" d="M516.6,393h-2v-6.8c0-0.6,0-1.1-0.1-1.5c-0.1-0.5-0.2-0.9-0.3-1.1c-0.2-0.3-0.4-0.5-0.7-0.7
	c-0.3-0.2-0.7-0.2-1.2-0.2c-0.5,0-1,0.1-1.6,0.4c-0.5,0.3-1,0.6-1.6,1.1v9h-2v-12h2v1.3c0.6-0.5,1.2-0.9,1.8-1.2
	c0.6-0.3,1.2-0.4,1.8-0.4c1.2,0,2.1,0.4,2.8,1.2c0.7,0.8,1,1.9,1,3.4 M502.1,387c0-1.5-0.3-2.7-0.9-3.5c-0.6-0.8-1.4-1.1-2.4-1.1
	c-1.1,0-1.9,0.4-2.4,1.1c-0.6,0.8-0.9,1.9-0.9,3.5c0,1.5,0.3,2.6,0.9,3.4c0.6,0.8,1.4,1.2,2.4,1.2c1,0,1.8-0.4,2.4-1.1
	C501.9,389.7,502.1,388.5,502.1,387 M504.2,387c0,2-0.5,3.6-1.5,4.7c-1,1.1-2.3,1.7-3.9,1.7c-1.7,0-3-0.6-3.9-1.7
	c-1-1.1-1.4-2.7-1.4-4.6c0-2,0.5-3.6,1.5-4.7c1-1.1,2.3-1.7,3.9-1.7c1.6,0,2.9,0.6,3.9,1.7C503.7,383.4,504.2,385,504.2,387
	 M490.7,379h-2.3v-2.1h2.3V379z M490.5,393h-2v-12h2V393z M481.1,393.3c-0.8,0-1.6-0.1-2.3-0.3c-0.7-0.2-1.3-0.4-1.7-0.7V390h0.1
	c0.2,0.1,0.4,0.3,0.6,0.4c0.2,0.2,0.6,0.3,0.9,0.5c0.3,0.2,0.7,0.3,1.1,0.4c0.4,0.1,0.8,0.2,1.3,0.2c0.3,0,0.7,0,1-0.1
	c0.4-0.1,0.6-0.2,0.8-0.3c0.2-0.2,0.4-0.3,0.5-0.5c0.1-0.2,0.2-0.5,0.2-0.8c0-0.5-0.1-0.8-0.4-1.1c-0.3-0.2-0.7-0.4-1.4-0.6
	c-0.3-0.1-0.6-0.1-1-0.2c-0.4-0.1-0.8-0.2-1.1-0.3c-0.9-0.3-1.6-0.7-2-1.2c-0.4-0.6-0.6-1.2-0.6-2c0-1.1,0.4-2,1.2-2.6
	c0.8-0.7,1.9-1,3.3-1c0.7,0,1.3,0.1,2,0.2c0.7,0.2,1.2,0.4,1.7,0.6v2.2h-0.1c-0.5-0.4-1.1-0.7-1.7-1c-0.6-0.2-1.3-0.4-1.9-0.4
	c-0.7,0-1.2,0.1-1.7,0.4c-0.4,0.3-0.7,0.7-0.7,1.3c0,0.5,0.1,0.9,0.4,1.1c0.3,0.3,0.7,0.4,1.3,0.6c0.3,0.1,0.6,0.2,1,0.2
	c0.4,0.1,0.8,0.1,1.2,0.3c0.9,0.2,1.6,0.6,2,1.1c0.4,0.5,0.7,1.2,0.7,2.1c0,0.5-0.1,1-0.3,1.5c-0.2,0.5-0.5,0.9-0.9,1.2
	c-0.4,0.4-0.9,0.6-1.5,0.8C482.6,393.2,481.9,393.3,481.1,393.3 M470.4,393.3c-0.8,0-1.6-0.1-2.3-0.3c-0.7-0.2-1.3-0.4-1.7-0.7V390
	h0.1c0.2,0.1,0.4,0.3,0.6,0.4c0.2,0.2,0.6,0.3,0.9,0.5c0.3,0.2,0.7,0.3,1.1,0.4c0.4,0.1,0.8,0.2,1.3,0.2c0.3,0,0.7,0,1-0.1
	c0.4-0.1,0.6-0.2,0.8-0.3c0.2-0.2,0.4-0.3,0.5-0.5c0.1-0.2,0.2-0.5,0.2-0.8c0-0.5-0.1-0.8-0.4-1.1c-0.3-0.2-0.7-0.4-1.4-0.6
	c-0.3-0.1-0.6-0.1-1-0.2c-0.4-0.1-0.8-0.2-1.2-0.3c-0.9-0.3-1.6-0.7-2-1.2c-0.4-0.6-0.6-1.2-0.6-2c0-1.1,0.4-2,1.2-2.6
	c0.8-0.7,1.9-1,3.3-1c0.7,0,1.3,0.1,2,0.2c0.7,0.2,1.2,0.4,1.7,0.6v2.2h-0.1c-0.5-0.4-1.1-0.7-1.7-1c-0.6-0.2-1.3-0.4-1.9-0.4
	c-0.7,0-1.2,0.1-1.7,0.4c-0.4,0.3-0.7,0.7-0.7,1.3c0,0.5,0.1,0.9,0.4,1.1c0.3,0.3,0.7,0.4,1.3,0.6c0.3,0.1,0.6,0.2,1,0.2
	c0.4,0.1,0.8,0.1,1.2,0.3c0.9,0.2,1.6,0.6,2,1.1c0.5,0.5,0.7,1.2,0.7,2.1c0,0.5-0.1,1-0.3,1.5c-0.2,0.5-0.5,0.9-0.9,1.2
	c-0.4,0.4-0.9,0.6-1.4,0.8C471.9,393.2,471.2,393.3,470.4,393.3 M461.5,391.7c-0.2,0.1-0.4,0.3-0.7,0.5c-0.3,0.2-0.5,0.4-0.8,0.5
	c-0.4,0.2-0.7,0.3-1,0.4c-0.3,0.1-0.8,0.1-1.4,0.1c-0.5,0-1-0.1-1.4-0.3c-0.4-0.2-0.8-0.4-1.2-0.8c-0.3-0.3-0.6-0.7-0.8-1.2
	c-0.2-0.5-0.3-1-0.3-1.5c0-0.8,0.2-1.5,0.5-2.1c0.4-0.6,0.9-1,1.7-1.4c0.7-0.3,1.5-0.5,2.4-0.6c0.9-0.1,1.9-0.2,3-0.3v-0.4
	c0-0.5-0.1-0.9-0.2-1.2c-0.1-0.3-0.4-0.5-0.6-0.7c-0.3-0.2-0.6-0.3-0.9-0.3c-0.4-0.1-0.8-0.1-1.1-0.1c-0.5,0-1,0.1-1.7,0.2
	c-0.6,0.1-1.3,0.3-1.9,0.6h-0.1v-2c0.4-0.1,0.9-0.2,1.6-0.4c0.7-0.1,1.4-0.2,2.1-0.2c0.8,0,1.5,0.1,2.1,0.2c0.6,0.1,1.1,0.4,1.5,0.7
	c0.4,0.3,0.8,0.8,1,1.3c0.2,0.5,0.3,1.2,0.3,1.9v8.2h-2V391.7z M461.5,390v-3.3c-0.5,0-1.1,0.1-1.8,0.2c-0.7,0.1-1.3,0.2-1.8,0.3
	c-0.5,0.2-1,0.4-1.3,0.7c-0.4,0.3-0.5,0.8-0.5,1.4c0,0.7,0.2,1.2,0.6,1.6c0.4,0.4,0.9,0.5,1.7,0.5c0.6,0,1.2-0.1,1.7-0.4
	C460.6,390.8,461,390.4,461.5,390 M449.8,386.9c0-1.4-0.2-2.4-0.7-3.2c-0.4-0.8-1.1-1.1-2.1-1.1c-0.6,0-1.1,0.1-1.7,0.4
	c-0.5,0.3-1.1,0.6-1.5,1v6.8c0.5,0.3,1,0.4,1.4,0.5c0.4,0.1,0.8,0.1,1.3,0.1c1,0,1.9-0.4,2.4-1.1
	C449.5,389.5,449.8,388.4,449.8,386.9 M451.9,386.7c0,2-0.5,3.6-1.4,4.8c-0.9,1.2-2.2,1.8-3.6,1.8c-0.6,0-1.1-0.1-1.6-0.2
	c-0.5-0.1-0.9-0.4-1.4-0.6v5h-2V381h2v1.3c0.5-0.4,1.1-0.8,1.7-1.1c0.6-0.3,1.3-0.4,2-0.4c1.4,0,2.5,0.5,3.2,1.6
	C451.5,383.4,451.9,384.8,451.9,386.7 M429.3,397.2h-1.8v-21h1.8V397.2z M411.4,393.3c-0.8,0-1.6-0.1-2.3-0.3
	c-0.7-0.2-1.3-0.4-1.7-0.7V390h0.1c0.2,0.1,0.4,0.3,0.6,0.4c0.2,0.2,0.6,0.3,0.9,0.5c0.3,0.2,0.7,0.3,1.1,0.4
	c0.4,0.1,0.8,0.2,1.3,0.2c0.3,0,0.7,0,1-0.1c0.4-0.1,0.6-0.2,0.8-0.3c0.2-0.2,0.4-0.3,0.5-0.5c0.1-0.2,0.2-0.5,0.2-0.8
	c0-0.5-0.1-0.8-0.4-1.1c-0.3-0.2-0.7-0.4-1.4-0.6c-0.3-0.1-0.6-0.1-1-0.2c-0.4-0.1-0.8-0.2-1.1-0.3c-0.9-0.3-1.6-0.7-2-1.2
	c-0.4-0.6-0.6-1.2-0.6-2c0-1.1,0.4-2,1.2-2.6c0.8-0.7,1.9-1,3.3-1c0.7,0,1.3,0.1,2,0.2c0.7,0.2,1.2,0.4,1.7,0.6v2.2h-0.1
	c-0.5-0.4-1.1-0.7-1.7-1c-0.6-0.2-1.3-0.4-1.9-0.4c-0.7,0-1.2,0.1-1.7,0.4c-0.4,0.3-0.7,0.7-0.7,1.3c0,0.5,0.1,0.9,0.4,1.1
	c0.3,0.3,0.7,0.4,1.3,0.6c0.3,0.1,0.6,0.2,1,0.2c0.4,0.1,0.8,0.1,1.2,0.3c0.9,0.2,1.6,0.6,2,1.1c0.4,0.5,0.7,1.2,0.7,2.1
	c0,0.5-0.1,1-0.3,1.5c-0.2,0.5-0.5,0.9-0.9,1.2c-0.4,0.4-0.9,0.6-1.5,0.8C412.8,393.2,412.2,393.3,411.4,393.3 M403.3,385.6
	c0-0.5-0.1-1-0.2-1.4c-0.1-0.4-0.3-0.7-0.5-1c-0.2-0.3-0.5-0.5-0.9-0.7c-0.4-0.2-0.8-0.2-1.4-0.2c-0.5,0-1,0.1-1.4,0.2
	c-0.4,0.2-0.7,0.4-1,0.7c-0.3,0.3-0.5,0.7-0.7,1c-0.1,0.4-0.3,0.8-0.3,1.3H403.3z M400.9,393.3c-1.9,0-3.4-0.5-4.5-1.6
	c-1.1-1.1-1.6-2.6-1.6-4.6c0-2,0.5-3.5,1.5-4.7c1-1.2,2.4-1.7,4-1.7c0.7,0,1.4,0.1,2,0.3c0.6,0.2,1.1,0.6,1.5,1c0.4,0.5,0.8,1,1,1.7
	c0.2,0.7,0.3,1.5,0.3,2.4v1.1h-8.3c0,1.4,0.4,2.5,1.1,3.2c0.7,0.7,1.7,1.1,2.9,1.1c0.4,0,0.9,0,1.3-0.1c0.4-0.1,0.8-0.2,1.2-0.4
	c0.4-0.2,0.7-0.3,0.9-0.5c0.3-0.1,0.5-0.3,0.6-0.4h0.1v2.2c-0.2,0.1-0.5,0.2-0.9,0.3c-0.3,0.1-0.7,0.3-0.9,0.3
	c-0.4,0.1-0.7,0.2-1.1,0.3C401.8,393.2,401.4,393.3,400.9,393.3 M388.3,393.3c-0.8,0-1.6-0.1-2.3-0.3c-0.7-0.2-1.3-0.4-1.7-0.7V390
	h0.1c0.2,0.1,0.4,0.3,0.6,0.4c0.2,0.2,0.6,0.3,0.9,0.5c0.3,0.2,0.7,0.3,1.1,0.4c0.4,0.1,0.8,0.2,1.3,0.2c0.3,0,0.7,0,1-0.1
	c0.4-0.1,0.6-0.2,0.8-0.3c0.2-0.2,0.4-0.3,0.5-0.5c0.1-0.2,0.2-0.5,0.2-0.8c0-0.5-0.1-0.8-0.4-1.1c-0.3-0.2-0.7-0.4-1.4-0.6
	c-0.3-0.1-0.6-0.1-1-0.2c-0.4-0.1-0.8-0.2-1.2-0.3c-0.9-0.3-1.6-0.7-2-1.2c-0.4-0.6-0.6-1.2-0.6-2c0-1.1,0.4-2,1.2-2.6
	c0.8-0.7,1.9-1,3.3-1c0.7,0,1.3,0.1,2,0.2c0.7,0.2,1.2,0.4,1.7,0.6v2.2h-0.1c-0.5-0.4-1.1-0.7-1.7-1c-0.6-0.2-1.3-0.4-1.9-0.4
	c-0.7,0-1.2,0.1-1.7,0.4c-0.5,0.3-0.7,0.7-0.7,1.3c0,0.5,0.1,0.9,0.4,1.1c0.3,0.3,0.7,0.4,1.3,0.6c0.3,0.1,0.6,0.2,1,0.2
	c0.4,0.1,0.8,0.1,1.2,0.3c0.9,0.2,1.6,0.6,2,1.1c0.4,0.5,0.7,1.2,0.7,2.1c0,0.5-0.1,1-0.3,1.5c-0.2,0.5-0.5,0.9-0.9,1.2
	c-0.4,0.4-0.9,0.6-1.5,0.8C389.8,393.2,389.1,393.3,388.3,393.3 M377.6,393.3c-0.8,0-1.6-0.1-2.3-0.3c-0.7-0.2-1.3-0.4-1.7-0.7V390
	h0.1c0.2,0.1,0.4,0.3,0.6,0.4c0.2,0.2,0.6,0.3,0.9,0.5c0.3,0.2,0.7,0.3,1.1,0.4c0.4,0.1,0.8,0.2,1.3,0.2c0.3,0,0.7,0,1-0.1
	c0.4-0.1,0.6-0.2,0.8-0.3c0.2-0.2,0.4-0.3,0.5-0.5c0.1-0.2,0.2-0.5,0.2-0.8c0-0.5-0.1-0.8-0.4-1.1c-0.3-0.2-0.7-0.4-1.4-0.6
	c-0.3-0.1-0.6-0.1-1-0.2c-0.4-0.1-0.8-0.2-1.2-0.3c-0.9-0.3-1.6-0.7-2-1.2c-0.4-0.6-0.6-1.2-0.6-2c0-1.1,0.4-2,1.2-2.6
	c0.8-0.7,1.9-1,3.3-1c0.7,0,1.3,0.1,2,0.2c0.7,0.2,1.2,0.4,1.7,0.6v2.2h-0.1c-0.5-0.4-1.1-0.7-1.7-1c-0.6-0.2-1.3-0.4-1.9-0.4
	c-0.7,0-1.2,0.1-1.7,0.4c-0.4,0.3-0.7,0.7-0.7,1.3c0,0.5,0.1,0.9,0.4,1.1c0.3,0.3,0.7,0.4,1.3,0.6c0.3,0.1,0.6,0.2,1,0.2
	c0.4,0.1,0.8,0.1,1.2,0.3c0.9,0.2,1.6,0.6,2,1.1c0.4,0.5,0.7,1.2,0.7,2.1c0,0.5-0.1,1-0.3,1.5c-0.2,0.5-0.5,0.9-0.9,1.2
	c-0.4,0.4-0.9,0.6-1.4,0.8C379.1,393.2,378.4,393.3,377.6,393.3 M369.5,385.6c0-0.5-0.1-1-0.2-1.4c-0.1-0.4-0.3-0.7-0.5-1
	c-0.2-0.3-0.5-0.5-0.9-0.7c-0.4-0.2-0.8-0.2-1.4-0.2c-0.5,0-1,0.1-1.4,0.2c-0.4,0.2-0.7,0.4-1,0.7c-0.3,0.3-0.5,0.7-0.7,1
	c-0.2,0.4-0.3,0.8-0.3,1.3H369.5z M367.2,393.3c-1.9,0-3.4-0.5-4.4-1.6c-1.1-1.1-1.6-2.6-1.6-4.6c0-2,0.5-3.5,1.5-4.7
	c1-1.2,2.4-1.7,4-1.7c0.7,0,1.4,0.1,2,0.3c0.6,0.2,1.1,0.6,1.5,1c0.4,0.5,0.8,1,1,1.7c0.2,0.7,0.3,1.5,0.3,2.4v1.1h-8.3
	c0,1.4,0.4,2.5,1.1,3.2c0.7,0.7,1.7,1.1,2.9,1.1c0.4,0,0.9,0,1.3-0.1c0.4-0.1,0.8-0.2,1.2-0.4c0.4-0.2,0.7-0.3,0.9-0.5
	c0.3-0.1,0.5-0.3,0.6-0.4h0.1v2.2c-0.2,0.1-0.5,0.2-0.9,0.3c-0.3,0.1-0.7,0.3-0.9,0.3c-0.4,0.1-0.7,0.2-1.1,0.3
	C368.1,393.2,367.7,393.3,367.2,393.3 M355.7,393.3c-0.8,0-1.6-0.1-2.3-0.4c-0.7-0.2-1.3-0.6-1.8-1.2c-0.5-0.5-0.9-1.2-1.1-2
	c-0.3-0.8-0.4-1.7-0.4-2.8c0-1.1,0.1-2,0.4-2.7c0.3-0.8,0.7-1.4,1.1-1.9c0.5-0.5,1.1-0.9,1.8-1.2c0.7-0.3,1.5-0.4,2.3-0.4
	c0.7,0,1.3,0.1,1.9,0.3c0.6,0.2,1.2,0.4,1.6,0.7v2.3h-0.1c-0.1-0.1-0.3-0.3-0.6-0.4c-0.2-0.2-0.5-0.3-0.8-0.5
	c-0.3-0.1-0.6-0.3-1-0.4c-0.4-0.1-0.7-0.2-1.1-0.2c-1,0-1.9,0.4-2.5,1.2c-0.6,0.8-0.9,1.9-0.9,3.4c0,1.4,0.3,2.5,0.9,3.3
	c0.6,0.8,1.5,1.2,2.5,1.2c0.7,0,1.3-0.1,1.9-0.4c0.6-0.3,1.1-0.6,1.6-1.1h0.1v2.3c-0.2,0.1-0.5,0.2-0.8,0.3
	c-0.3,0.1-0.6,0.2-0.8,0.3c-0.3,0.1-0.7,0.2-0.9,0.2C356.5,393.2,356.2,393.3,355.7,393.3 M346,387c0-1.5-0.3-2.7-0.9-3.5
	c-0.6-0.8-1.4-1.1-2.4-1.1c-1.1,0-1.9,0.4-2.4,1.1c-0.6,0.8-0.9,1.9-0.9,3.5c0,1.5,0.3,2.6,0.9,3.4c0.6,0.8,1.4,1.2,2.4,1.2
	c1,0,1.8-0.4,2.4-1.1C345.7,389.7,346,388.5,346,387 M348.1,387c0,2-0.5,3.6-1.5,4.7c-1,1.1-2.3,1.7-3.9,1.7c-1.7,0-3-0.6-3.9-1.7
	c-1-1.1-1.4-2.7-1.4-4.6c0-2,0.5-3.6,1.5-4.7c1-1.1,2.3-1.7,3.9-1.7c1.6,0,2.9,0.6,3.9,1.7C347.6,383.4,348.1,385,348.1,387
	 M335.8,383.1h-0.1c-0.1,0-0.3-0.1-0.5-0.1c-0.2,0-0.4,0-0.6,0c-0.6,0-1.1,0.1-1.6,0.4c-0.5,0.2-1,0.6-1.5,1.1v8.5h-2v-12h2v1.8
	c0.7-0.7,1.4-1.1,1.9-1.4c0.5-0.3,1.1-0.4,1.6-0.4c0.2,0,0.4,0,0.5,0l0.4,0V383.1z M324.4,386.9c0-1.4-0.2-2.4-0.7-3.2
	c-0.4-0.8-1.2-1.1-2.1-1.1c-0.6,0-1.1,0.1-1.7,0.4c-0.5,0.3-1,0.6-1.5,1v6.8c0.5,0.3,1,0.4,1.4,0.5c0.4,0.1,0.8,0.1,1.3,0.1
	c1,0,1.9-0.4,2.4-1.1C324.1,389.5,324.4,388.4,324.4,386.9 M326.5,386.7c0,2-0.5,3.6-1.4,4.8c-0.9,1.2-2.2,1.8-3.6,1.8
	c-0.6,0-1.1-0.1-1.6-0.2c-0.5-0.1-0.9-0.4-1.4-0.6v5h-2V381h2v1.3c0.5-0.4,1.1-0.8,1.7-1.1c0.6-0.3,1.3-0.4,2-0.4
	c1.4,0,2.5,0.5,3.2,1.6C326.1,383.4,326.5,384.8,326.5,386.7 M304.7,385.6c0-0.5-0.1-1-0.2-1.4c-0.1-0.4-0.3-0.7-0.5-1
	c-0.2-0.3-0.5-0.5-0.9-0.7c-0.4-0.2-0.8-0.2-1.4-0.2c-0.5,0-1,0.1-1.4,0.2c-0.4,0.2-0.7,0.4-1,0.7c-0.3,0.3-0.5,0.7-0.7,1
	c-0.1,0.4-0.2,0.8-0.3,1.3H304.7z M302.3,393.3c-1.9,0-3.4-0.5-4.4-1.6c-1.1-1.1-1.6-2.6-1.6-4.6c0-2,0.5-3.5,1.5-4.7
	c1-1.2,2.4-1.7,4-1.7c0.7,0,1.4,0.1,2,0.3c0.6,0.2,1.1,0.6,1.5,1c0.4,0.5,0.8,1,1,1.7c0.2,0.7,0.3,1.5,0.3,2.4v1.1h-8.3
	c0,1.4,0.4,2.5,1.1,3.2c0.7,0.7,1.7,1.1,2.9,1.1c0.4,0,0.9,0,1.3-0.1c0.4-0.1,0.8-0.2,1.2-0.4c0.4-0.2,0.7-0.3,0.9-0.5
	c0.3-0.1,0.5-0.3,0.6-0.4h0.1v2.2c-0.2,0.1-0.5,0.2-0.9,0.3c-0.3,0.1-0.7,0.3-0.9,0.3c-0.4,0.1-0.7,0.2-1.1,0.3
	C303.2,393.2,302.8,393.3,302.3,393.3 M289.7,393.3c-0.8,0-1.6-0.1-2.3-0.3c-0.7-0.2-1.3-0.4-1.7-0.7V390h0.1
	c0.2,0.1,0.4,0.3,0.6,0.4c0.2,0.2,0.5,0.3,0.9,0.5c0.3,0.2,0.7,0.3,1.1,0.4c0.4,0.1,0.8,0.2,1.3,0.2c0.3,0,0.7,0,1-0.1
	c0.4-0.1,0.6-0.2,0.8-0.3c0.2-0.2,0.4-0.3,0.5-0.5c0.1-0.2,0.2-0.5,0.2-0.8c0-0.5-0.1-0.8-0.4-1.1c-0.3-0.2-0.7-0.4-1.4-0.6
	c-0.3-0.1-0.6-0.1-1-0.2c-0.4-0.1-0.8-0.2-1.1-0.3c-0.9-0.3-1.6-0.7-2-1.2c-0.4-0.6-0.6-1.2-0.6-2c0-1.1,0.4-2,1.2-2.6
	c0.8-0.7,1.9-1,3.3-1c0.7,0,1.3,0.1,2,0.2c0.7,0.2,1.2,0.4,1.7,0.6v2.2h-0.1c-0.5-0.4-1.1-0.7-1.7-1c-0.6-0.2-1.3-0.4-1.9-0.4
	c-0.7,0-1.2,0.1-1.7,0.4c-0.5,0.3-0.7,0.7-0.7,1.3c0,0.5,0.1,0.9,0.4,1.1c0.3,0.3,0.7,0.4,1.3,0.6c0.3,0.1,0.6,0.2,1,0.2
	c0.4,0.1,0.8,0.1,1.2,0.3c0.9,0.2,1.6,0.6,2,1.1c0.4,0.5,0.7,1.2,0.7,2.1c0,0.5-0.1,1-0.3,1.5c-0.2,0.5-0.5,0.9-0.9,1.2
	c-0.4,0.4-0.9,0.6-1.5,0.8C291.2,393.2,290.5,393.3,289.7,393.3 M282.8,379h-2.3v-2.1h2.3V379z M282.6,393h-2v-12h2V393z
	 M274.4,393.3c-0.8,0-1.6-0.1-2.3-0.4c-0.7-0.2-1.3-0.6-1.8-1.2c-0.5-0.5-0.9-1.2-1.1-2c-0.3-0.8-0.4-1.7-0.4-2.8
	c0-1.1,0.1-2,0.4-2.7c0.3-0.8,0.7-1.4,1.1-1.9c0.5-0.5,1.1-0.9,1.8-1.2c0.7-0.3,1.5-0.4,2.3-0.4c0.7,0,1.3,0.1,1.9,0.3
	c0.6,0.2,1.2,0.4,1.6,0.7v2.3h-0.1c-0.1-0.1-0.3-0.3-0.6-0.4c-0.2-0.2-0.5-0.3-0.8-0.5c-0.3-0.1-0.6-0.3-1-0.4
	c-0.4-0.1-0.7-0.2-1.1-0.2c-1.1,0-1.9,0.4-2.5,1.2c-0.6,0.8-0.9,1.9-0.9,3.4c0,1.4,0.3,2.5,0.9,3.3c0.6,0.8,1.5,1.2,2.5,1.2
	c0.7,0,1.3-0.1,1.9-0.4c0.6-0.3,1.1-0.6,1.6-1.1h0.1v2.3c-0.2,0.1-0.4,0.2-0.8,0.3c-0.3,0.1-0.6,0.2-0.8,0.3
	c-0.3,0.1-0.7,0.2-0.9,0.2C275.2,393.2,274.8,393.3,274.4,393.3 M264.8,385.6c0-0.5-0.1-1-0.2-1.4c-0.1-0.4-0.3-0.7-0.5-1
	c-0.2-0.3-0.5-0.5-0.9-0.7c-0.4-0.2-0.8-0.2-1.4-0.2c-0.5,0-1,0.1-1.4,0.2c-0.4,0.2-0.7,0.4-1,0.7c-0.3,0.3-0.5,0.7-0.7,1
	c-0.2,0.4-0.3,0.8-0.3,1.3H264.8z M262.4,393.3c-1.9,0-3.4-0.5-4.4-1.6c-1.1-1.1-1.6-2.6-1.6-4.6c0-2,0.5-3.5,1.5-4.7
	c1-1.2,2.4-1.7,4-1.7c0.7,0,1.4,0.1,2,0.3c0.6,0.2,1.1,0.6,1.5,1c0.4,0.5,0.8,1,1,1.7c0.2,0.7,0.3,1.5,0.3,2.4v1.1h-8.3
	c0,1.4,0.4,2.5,1.1,3.2c0.7,0.7,1.7,1.1,2.9,1.1c0.4,0,0.9,0,1.3-0.1c0.4-0.1,0.8-0.2,1.2-0.4c0.4-0.2,0.7-0.3,0.9-0.5
	c0.3-0.1,0.5-0.3,0.6-0.4h0.1v2.2c-0.2,0.1-0.5,0.2-0.9,0.3c-0.3,0.1-0.7,0.3-0.9,0.3c-0.4,0.1-0.8,0.2-1.1,0.3
	C263.3,393.2,262.9,393.3,262.4,393.3 M254.8,383.1h-0.1c-0.1,0-0.3-0.1-0.5-0.1c-0.2,0-0.4,0-0.6,0c-0.6,0-1.1,0.1-1.6,0.4
	c-0.5,0.2-1.1,0.6-1.5,1.1v8.5h-2v-12h2v1.8c0.7-0.7,1.4-1.1,1.9-1.4c0.6-0.3,1.1-0.4,1.6-0.4c0.2,0,0.4,0,0.5,0l0.4,0V383.1z
	 M243.4,386.9c0-1.4-0.2-2.4-0.7-3.2c-0.4-0.8-1.2-1.1-2.1-1.1c-0.6,0-1.1,0.1-1.6,0.4c-0.5,0.3-1.1,0.6-1.5,1v6.8
	c0.5,0.3,1,0.4,1.4,0.5c0.4,0.1,0.8,0.1,1.3,0.1c1,0,1.9-0.4,2.4-1.1C243.1,389.5,243.4,388.4,243.4,386.9 M245.5,386.7
	c0,2-0.5,3.6-1.4,4.8c-0.9,1.2-2.2,1.8-3.6,1.8c-0.6,0-1.1-0.1-1.6-0.2c-0.5-0.1-0.9-0.4-1.4-0.6v5h-2V381h2v1.3
	c0.5-0.4,1.1-0.8,1.7-1.1c0.6-0.3,1.3-0.4,2-0.4c1.4,0,2.5,0.5,3.2,1.6C245.1,383.4,245.5,384.8,245.5,386.7"/>
<path class="st8" d="M624.8,385.6c0-0.5-0.1-1-0.2-1.4c-0.1-0.4-0.3-0.7-0.5-1c-0.2-0.3-0.5-0.5-0.9-0.7c-0.4-0.2-0.8-0.2-1.4-0.2
	c-0.5,0-1,0.1-1.4,0.2c-0.4,0.2-0.7,0.4-1,0.7c-0.3,0.3-0.5,0.7-0.7,1c-0.2,0.4-0.3,0.8-0.3,1.3 M622.4,393.3
	c-1.9,0-3.4-0.5-4.4-1.6c-1.1-1.1-1.6-2.6-1.6-4.6c0-2,0.5-3.5,1.5-4.7c1-1.2,2.4-1.7,4-1.7c0.7,0,1.4,0.1,2,0.3
	c0.6,0.2,1.1,0.6,1.5,1c0.4,0.5,0.8,1,1,1.7c0.2,0.7,0.3,1.5,0.3,2.4v1.1h-8.3c0,1.4,0.4,2.5,1.1,3.2c0.7,0.7,1.7,1.1,2.9,1.1
	c0.4,0,0.9,0,1.3-0.1c0.4-0.1,0.8-0.2,1.2-0.4c0.4-0.2,0.7-0.3,0.9-0.5c0.3-0.2,0.5-0.3,0.6-0.4h0.1v2.2c-0.2,0.1-0.5,0.2-0.9,0.3
	c-0.3,0.1-0.7,0.3-0.9,0.3c-0.4,0.1-0.8,0.2-1.1,0.3C623.3,393.2,622.9,393.3,622.4,393.3 M613.4,393h-2v-16.7h2V393z M606.3,386.9
	c0-1.4-0.2-2.4-0.7-3.2c-0.4-0.8-1.2-1.1-2.1-1.1c-0.6,0-1.1,0.1-1.6,0.4c-0.5,0.3-1.1,0.6-1.5,1v6.8c0.5,0.3,1,0.4,1.4,0.5
	c0.4,0.1,0.8,0.1,1.3,0.1c1.1,0,1.9-0.4,2.4-1.2C606,389.5,606.3,388.4,606.3,386.9 M608.4,386.7c0,2-0.5,3.6-1.4,4.8
	c-0.9,1.2-2.2,1.8-3.6,1.8c-0.6,0-1.1-0.1-1.6-0.2c-0.5-0.1-0.9-0.4-1.4-0.6v5h-2V381h2v1.3c0.5-0.4,1.1-0.8,1.7-1.1
	c0.6-0.3,1.3-0.4,2-0.4c1.4,0,2.5,0.5,3.2,1.6C608,383.4,608.4,384.8,608.4,386.7 M593.4,387c0-1.6-0.3-2.7-0.9-3.5
	c-0.6-0.8-1.4-1.1-2.4-1.1s-1.9,0.4-2.4,1.1c-0.6,0.8-0.9,1.9-0.9,3.5c0,1.5,0.3,2.6,0.9,3.4c0.6,0.8,1.4,1.2,2.4,1.2
	c1,0,1.8-0.4,2.4-1.1C593.1,389.7,593.4,388.5,593.4,387 M595.4,387c0,2-0.5,3.6-1.5,4.7c-1,1.1-2.3,1.7-3.9,1.7
	c-1.7,0-3-0.6-3.9-1.7c-1-1.1-1.4-2.7-1.4-4.6c0-2,0.5-3.6,1.5-4.7c1-1.1,2.3-1.7,3.9-1.7c1.6,0,2.9,0.5,3.9,1.7
	C595,383.4,595.4,385,595.4,387 M580.7,385.6c0-0.5-0.1-1-0.2-1.4c-0.1-0.4-0.3-0.7-0.5-1c-0.2-0.3-0.5-0.5-0.9-0.7
	c-0.4-0.2-0.8-0.2-1.4-0.2c-0.5,0-1,0.1-1.4,0.2c-0.4,0.2-0.7,0.4-1,0.7c-0.3,0.3-0.5,0.7-0.7,1c-0.1,0.4-0.2,0.8-0.3,1.3H580.7z
	 M578.3,393.3c-1.9,0-3.4-0.5-4.4-1.6c-1.1-1.1-1.6-2.6-1.6-4.6c0-2,0.5-3.5,1.5-4.7c1-1.2,2.4-1.7,4-1.7c0.7,0,1.4,0.1,2,0.3
	c0.6,0.2,1.1,0.6,1.5,1c0.4,0.5,0.8,1,1,1.7c0.2,0.7,0.3,1.5,0.3,2.4v1.1h-8.3c0,1.4,0.3,2.5,1,3.2c0.7,0.7,1.7,1.1,2.9,1.1
	c0.4,0,0.9,0,1.3-0.1c0.4-0.1,0.8-0.2,1.2-0.4c0.4-0.2,0.7-0.3,0.9-0.5c0.3-0.2,0.5-0.3,0.6-0.4h0.1v2.2c-0.2,0.1-0.5,0.2-0.9,0.3
	c-0.3,0.1-0.7,0.3-0.9,0.3c-0.4,0.1-0.7,0.2-1.1,0.3C579.2,393.2,578.8,393.3,578.3,393.3 M568.1,386.9c0-1.4-0.2-2.4-0.6-3.2
	c-0.4-0.8-1.2-1.1-2.1-1.1c-0.6,0-1.1,0.1-1.7,0.4c-0.5,0.3-1,0.6-1.5,1v6.8c0.5,0.3,1,0.4,1.4,0.5c0.4,0.1,0.8,0.1,1.3,0.1
	c1,0,1.9-0.4,2.4-1.2C567.8,389.5,568.1,388.4,568.1,386.9 M570.2,386.7c0,2-0.5,3.6-1.4,4.8c-0.9,1.2-2.2,1.8-3.6,1.8
	c-0.6,0-1.1-0.1-1.6-0.2c-0.4-0.1-0.9-0.4-1.4-0.6v5h-2V381h2v1.3c0.5-0.4,1.1-0.8,1.7-1.1c0.6-0.3,1.3-0.4,2-0.4
	c1.4,0,2.5,0.5,3.2,1.6C569.8,383.4,570.2,384.8,570.2,386.7 M548.4,385.6c0-0.5-0.1-1-0.2-1.4c-0.1-0.4-0.3-0.7-0.5-1
	c-0.2-0.3-0.5-0.5-0.9-0.7c-0.4-0.2-0.8-0.2-1.4-0.2c-0.5,0-1,0.1-1.4,0.2c-0.4,0.2-0.7,0.4-1,0.7c-0.3,0.3-0.5,0.7-0.7,1
	c-0.2,0.4-0.3,0.8-0.3,1.3H548.4z M546,393.3c-1.9,0-3.4-0.5-4.5-1.6c-1.1-1.1-1.6-2.6-1.6-4.6c0-2,0.5-3.5,1.5-4.7
	c1-1.2,2.4-1.7,4-1.7c0.7,0,1.4,0.1,2,0.3c0.6,0.2,1.1,0.6,1.5,1c0.4,0.5,0.8,1,1,1.7c0.2,0.7,0.3,1.5,0.3,2.4v1.1H542
	c0,1.4,0.4,2.5,1.1,3.2c0.7,0.7,1.7,1.1,2.9,1.1c0.4,0,0.9,0,1.3-0.1c0.4-0.1,0.8-0.2,1.2-0.4c0.4-0.2,0.7-0.3,0.9-0.5
	c0.3-0.2,0.5-0.3,0.6-0.4h0.1v2.2c-0.2,0.1-0.5,0.2-0.9,0.3c-0.3,0.1-0.7,0.3-0.9,0.3c-0.4,0.1-0.8,0.2-1.1,0.3
	C546.9,393.2,546.5,393.3,546,393.3 M536.3,393.2c-1.1,0-2-0.3-2.6-0.9c-0.6-0.6-0.9-1.6-0.9-3v-6.7h-1.4V381h1.4v-3.4h2v3.4h3.7
	v1.7h-3.7v5.7c0,0.6,0,1.1,0,1.4c0,0.3,0.1,0.6,0.3,0.9c0.1,0.3,0.3,0.4,0.6,0.6c0.3,0.1,0.6,0.2,1.1,0.2c0.3,0,0.7,0,1-0.1
	c0.3-0.1,0.5-0.2,0.7-0.2h0.1v1.8c-0.4,0.1-0.8,0.2-1.2,0.3C537,393.2,536.6,393.2,536.3,393.2 M527,391.7c-0.2,0.1-0.4,0.3-0.7,0.5
	c-0.3,0.2-0.5,0.4-0.8,0.5c-0.4,0.2-0.7,0.3-1,0.4c-0.3,0.1-0.8,0.1-1.4,0.1c-0.5,0-1-0.1-1.4-0.3c-0.5-0.2-0.8-0.5-1.2-0.8
	c-0.3-0.3-0.6-0.7-0.8-1.2c-0.2-0.5-0.3-1-0.3-1.5c0-0.8,0.2-1.5,0.5-2.1c0.4-0.6,0.9-1,1.7-1.4c0.7-0.3,1.5-0.5,2.4-0.6
	c0.9-0.1,1.9-0.2,3-0.3v-0.4c0-0.5-0.1-0.9-0.2-1.1c-0.1-0.3-0.4-0.5-0.6-0.7c-0.3-0.2-0.6-0.3-0.9-0.3c-0.4-0.1-0.8-0.1-1.1-0.1
	c-0.5,0-1,0.1-1.7,0.2c-0.6,0.1-1.2,0.3-1.9,0.6h-0.1v-2c0.4-0.1,0.9-0.2,1.6-0.4c0.7-0.1,1.4-0.2,2.1-0.2c0.8,0,1.5,0.1,2.1,0.2
	c0.6,0.1,1.1,0.4,1.5,0.7c0.4,0.3,0.8,0.8,1,1.3c0.2,0.5,0.3,1.2,0.3,1.9v8.2h-2V391.7z M527,390v-3.3c-0.5,0-1.1,0.1-1.8,0.2
	c-0.7,0.1-1.3,0.2-1.8,0.3c-0.5,0.2-1,0.4-1.3,0.7c-0.4,0.3-0.5,0.8-0.5,1.4c0,0.7,0.2,1.2,0.6,1.6c0.4,0.4,0.9,0.5,1.7,0.5
	c0.6,0,1.2-0.1,1.7-0.4C526,390.8,526.5,390.4,527,390"/>
</svg>
